<svg width="102" height="103" viewBox="0 0 102 103" fill="none" xmlns="http://www.w3.org/2000/svg">
<circle cx="51" cy="51.269" r="51" fill="#34093B"/>
<g clip-path="url(#clip0)">
<path d="M61.8894 28.469C59.6144 30.6177 57.5603 32.8765 55.7403 35.1454C52.7587 30.965 49.0619 26.7245 44.875 22.769C34.1278 32.9188 26.5 46.1435 26.5 54.119C26.5 68.2855 37.4692 79.769 51 79.769C64.5308 79.769 75.5 68.2855 75.5 54.119C75.5 48.1886 69.8147 35.957 61.8894 28.469ZM59.7598 66.393C57.3908 68.0807 54.4694 69.0815 51.3128 69.0815C43.4214 69.0815 37 63.7667 37 55.1377C37 50.8393 39.6589 47.0519 44.9614 40.5815C45.7194 41.4699 55.7709 54.5354 55.7709 54.5354L62.1836 47.0898C62.6364 47.8524 63.0487 48.5983 63.4162 49.313C66.4077 55.1232 65.1455 62.5577 59.7598 66.393Z" fill="#FFF103"/>
</g>
<defs>
<clipPath id="clip0">
<rect width="49" height="57" fill="white" transform="translate(26.5 22.769)"/>
</clipPath>
</defs>
</svg>
