<svg width="50" height="51" viewBox="0 0 50 51" fill="none" xmlns="http://www.w3.org/2000/svg">
<path fill-rule="evenodd" clip-rule="evenodd" d="M25.1511 0.951904C11.4824 0.951904 0.401123 12.0332 0.401123 25.7019C0.401123 39.3707 11.4824 50.4519 25.1511 50.4519C38.8199 50.4519 49.9011 39.3707 49.9011 25.7019C49.9011 12.0332 38.8199 0.951904 25.1511 0.951904ZM35.8791 21.5169C36.0767 21.2911 36.2271 21.0281 36.3214 20.7433C36.4158 20.4585 36.4523 20.1577 36.4287 19.8586C36.4052 19.5595 36.322 19.2682 36.1842 19.0017C36.0463 18.7352 35.8566 18.499 35.6261 18.3069C35.3956 18.1149 35.1291 17.9708 34.8421 17.8833C34.5551 17.7958 34.2536 17.7665 33.9551 17.7973C33.6567 17.828 33.3674 17.9181 33.1043 18.0623C32.8412 18.2065 32.6096 18.4019 32.4231 18.6369L22.7481 30.2447L17.7419 25.2362C17.3175 24.8263 16.7492 24.5995 16.1592 24.6046C15.5693 24.6098 15.0049 24.8464 14.5878 25.2636C14.1706 25.6807 13.934 26.2451 13.9289 26.835C13.9237 27.4249 14.1505 27.9933 14.5604 28.4177L21.3104 35.1677C21.5315 35.3886 21.7961 35.5611 22.0876 35.674C22.379 35.787 22.6907 35.838 23.003 35.8239C23.3152 35.8097 23.6211 35.7306 23.901 35.5917C24.181 35.4527 24.429 35.257 24.6291 35.0169L35.8791 21.5169Z" fill="#FFF103"/>
</svg>
