<svg width="26" height="27" viewBox="0 0 26 27" fill="none" xmlns="http://www.w3.org/2000/svg">
<path fill-rule="evenodd" clip-rule="evenodd" d="M13.1511 0.722168C6.05504 0.722168 0.302246 6.47496 0.302246 13.571C0.302246 20.6671 6.05504 26.4199 13.1511 26.4199C20.2472 26.4199 26 20.6671 26 13.571C26 6.47496 20.2472 0.722168 13.1511 0.722168ZM18.7205 11.3984C18.8231 11.2812 18.9012 11.1446 18.9502 10.9968C18.9992 10.8489 19.0181 10.6928 19.0059 10.5375C18.9936 10.3823 18.9504 10.231 18.8789 10.0927C18.8073 9.95431 18.7088 9.83168 18.5892 9.73197C18.4695 9.63225 18.3311 9.55748 18.1822 9.51204C18.0332 9.4666 17.8766 9.45142 17.7217 9.46738C17.5667 9.48334 17.4166 9.53013 17.28 9.60499C17.1434 9.67984 17.0232 9.78126 16.9264 9.90327L11.9036 15.9294L9.30464 13.3293C9.08433 13.1165 8.78928 12.9987 8.48301 13.0014C8.17674 13.0041 7.88377 13.1269 7.6672 13.3435C7.45063 13.5601 7.32778 13.853 7.32512 14.1593C7.32246 14.4656 7.4402 14.7606 7.65297 14.9809L11.1572 18.4852C11.272 18.5999 11.4094 18.6894 11.5607 18.748C11.712 18.8067 11.8738 18.8332 12.0359 18.8258C12.198 18.8185 12.3568 18.7774 12.5022 18.7053C12.6475 18.6332 12.7762 18.5315 12.8801 18.4069L18.7205 11.3984Z" fill="#FFF103"/>
</svg>
