<svg width="102" height="103" viewBox="0 0 102 103" fill="none" xmlns="http://www.w3.org/2000/svg">
<circle cx="51" cy="51.769" r="51" fill="#34093B"/>
<g clip-path="url(#clip0)">
<path d="M51 23.269C38.4247 34.5466 29.5 47.8614 29.5 56.7231C29.5 70.5835 38.3464 80.269 51 80.269C63.6536 80.269 72.5 70.5835 72.5 56.7231C72.5 47.828 63.5193 34.5021 51 23.269ZM51 73.144C44.6732 73.144 40.25 68.8022 40.25 62.5901C40.25 61.0872 40.7651 55.7435 51 44.644C61.2349 55.7435 61.75 61.0872 61.75 62.5901C61.75 68.8022 57.3268 73.144 51 73.144Z" fill="#FFF103"/>
</g>
<defs>
<clipPath id="clip0">
<rect width="43" height="57" fill="white" transform="translate(29.5 23.269)"/>
</clipPath>
</defs>
</svg>
