<svg width="44" height="11" viewBox="0 0 44 11" fill="none" xmlns="http://www.w3.org/2000/svg">
<path d="M16.7515 5.57432C16.7515 4.14215 17.3204 2.76864 18.3331 1.75594C19.3458 0.743244 20.7193 0.174316 22.1515 0.174316C23.5836 0.174316 24.9571 0.743244 25.9698 1.75594C26.9825 2.76864 27.5515 4.14215 27.5515 5.57432C27.5515 7.00649 26.9825 8.38 25.9698 9.39269C24.9571 10.4054 23.5836 10.9743 22.1515 10.9743C20.7193 10.9743 19.3458 10.4054 18.3331 9.39269C17.3204 8.38 16.7515 7.00649 16.7515 5.57432ZM32.9515 5.57432C32.9515 4.14215 33.5204 2.76864 34.5331 1.75594C35.5458 0.743244 36.9193 0.174316 38.3515 0.174316C39.7836 0.174316 41.1571 0.743244 42.1698 1.75594C43.1825 2.76864 43.7515 4.14215 43.7515 5.57432C43.7515 7.00649 43.1825 8.38 42.1698 9.39269C41.1571 10.4054 39.7836 10.9743 38.3515 10.9743C36.9193 10.9743 35.5458 10.4054 34.5331 9.39269C33.5204 8.38 32.9515 7.00649 32.9515 5.57432ZM0.55146 5.57432C0.55146 4.14215 1.12039 2.76864 2.13308 1.75594C3.14578 0.743243 4.51929 0.174315 5.95146 0.174315C7.38363 0.174315 8.75714 0.743243 9.76984 1.75594C10.7825 2.76864 11.3515 4.14215 11.3515 5.57432C11.3515 7.00649 10.7825 8.38 9.76984 9.39269C8.75714 10.4054 7.38363 10.9743 5.95146 10.9743C4.51929 10.9743 3.14578 10.4054 2.13308 9.39269C1.12039 8.37999 0.55146 7.00649 0.55146 5.57432Z" fill="#FFF103"/>
</svg>
