<svg width="102" height="103" viewBox="0 0 102 103" fill="none" xmlns="http://www.w3.org/2000/svg">
<circle cx="51" cy="51.769" r="51" fill="#34093B"/>
<path d="M55.0285 43.7919C54.4833 43.4873 53.6643 43.3359 52.5741 43.3359H46.7177V50.2784H52.4271C53.5602 50.2784 54.4116 50.1394 54.9786 49.8571C55.9813 49.3664 56.4845 48.3974 56.4845 46.9465C56.4845 45.3817 55.9988 44.329 55.0285 43.7919Z" fill="#FFF103"/>
<path d="M51.0017 25.0503C36.5047 25.0503 24.75 37.0132 24.75 51.769C24.75 66.5249 36.5047 78.4878 51.0017 78.4878C65.4987 78.4878 77.2517 66.5249 77.2517 51.769C77.2517 37.0132 65.4987 25.0503 51.0017 25.0503ZM62.2192 64.6902H56.3629C56.2306 64.2333 56.1159 63.7713 56.019 63.3053C55.8795 62.5714 55.8045 61.8262 55.795 61.0787L55.7591 58.6767C55.739 57.0291 55.4581 55.93 54.92 55.3805C54.3836 54.8328 53.3747 54.5576 51.8986 54.5576H46.7169V64.6902H41.5325V38.8479H53.6766C55.4126 38.8826 56.7479 39.1052 57.6824 39.514C58.6169 39.9228 59.4105 40.5249 60.0597 41.3193C60.5949 41.9712 61.0258 42.7049 61.3364 43.4934C61.6487 44.2887 61.8062 45.1927 61.8062 46.2107C61.8062 47.4388 61.5017 48.6438 60.8936 49.8302C60.2855 51.0165 59.2801 51.8545 57.8792 52.3471C59.05 52.8253 59.8804 53.5075 60.3677 54.3893C60.8569 55.271 61.101 56.6194 61.101 58.43V60.1659C61.101 61.345 61.1474 62.1475 61.241 62.5679C61.381 63.2341 61.7074 63.7248 62.2201 64.0392V64.6902H62.2192Z" fill="#FFF103"/>
</svg>
