<svg width="307" height="85" viewBox="0 0 307 85" fill="none" xmlns="http://www.w3.org/2000/svg">
<path d="M62.9561 45.3236L63.5878 46.0988L63.5963 46.0919L63.6046 46.0848L62.9561 45.3236ZM62.9081 39.3236L62.3081 40.1236L62.3174 40.1305L62.3269 40.1373L62.9081 39.3236ZM53.1161 38.3156V37.3156H52.1161V38.3156H53.1161ZM53.1161 46.3796H52.1161V47.3796H53.1161V46.3796ZM43.8041 30.2516V29.2516H42.8041V30.2516H43.8041ZM66.2681 31.2116L65.9318 32.1533V32.1533L66.2681 31.2116ZM70.6361 33.8996L69.9191 34.5966L69.9298 34.6076L69.9407 34.6182L70.6361 33.8996ZM71.7401 48.2516L72.5456 48.8442L71.7401 48.2516ZM66.7001 52.1396L66.3096 51.219L65.1848 51.6961L65.8749 52.7044L66.7001 52.1396ZM74.7161 63.8516V64.8516H76.6123L75.5414 63.2868L74.7161 63.8516ZM63.9641 63.8516L63.1315 64.4054L63.4282 64.8516H63.9641V63.8516ZM57.1961 53.6756L58.0288 53.1218L57.732 52.6756H57.1961V53.6756ZM53.1161 53.6756V52.6756H52.1161V53.6756H53.1161ZM53.1161 63.8516V64.8516H54.1161V63.8516H53.1161ZM43.8041 63.8516H42.8041V64.8516H43.8041V63.8516ZM59.2601 47.3796C60.9924 47.3796 62.4819 46.9999 63.5878 46.0988L62.3245 44.5483C61.7023 45.0552 60.7279 45.3796 59.2601 45.3796V47.3796ZM63.6046 46.0848C64.7091 45.1439 65.2521 43.8808 65.2521 42.3956H63.2521C63.2521 43.3423 62.9311 44.0312 62.3077 44.5623L63.6046 46.0848ZM65.2521 42.3956V42.2996H63.2521V42.3956H65.2521ZM65.2521 42.2996C65.2521 40.713 64.7074 39.3798 63.4894 38.5098L62.3269 40.1373C62.9009 40.5473 63.2521 41.1982 63.2521 42.2996H65.2521ZM63.5081 38.5236C62.3819 37.6789 60.912 37.3156 59.2121 37.3156V39.3156C60.6482 39.3156 61.6424 39.6243 62.3081 40.1236L63.5081 38.5236ZM59.2121 37.3156H53.1161V39.3156H59.2121V37.3156ZM52.1161 38.3156V46.3796H54.1161V38.3156H52.1161ZM53.1161 47.3796H59.2601V45.3796H53.1161V47.3796ZM43.8041 31.2516H59.6921V29.2516H43.8041V31.2516ZM59.6921 31.2516C62.2082 31.2516 64.279 31.563 65.9318 32.1533L66.6045 30.2698C64.6733 29.5801 62.3601 29.2516 59.6921 29.2516V31.2516ZM65.9318 32.1533C67.6062 32.7513 68.9236 33.5726 69.9191 34.5966L71.3531 33.2025C70.1087 31.9225 68.514 30.9518 66.6045 30.2698L65.9318 32.1533ZM69.9407 34.6182C71.6928 36.3138 72.6121 38.6419 72.6121 41.7236H74.6121C74.6121 38.2132 73.5474 35.3254 71.3315 33.181L69.9407 34.6182ZM72.6121 41.7236V41.8196H74.6121V41.7236H72.6121ZM72.6121 41.8196C72.6121 44.2484 72.0295 46.171 70.9347 47.6589L72.5456 48.8442C73.9467 46.9401 74.6121 44.5747 74.6121 41.8196H72.6121ZM70.9347 47.6589C69.8025 49.1975 68.2716 50.3866 66.3096 51.219L67.0907 53.0601C69.3526 52.1005 71.1818 50.6976 72.5456 48.8442L70.9347 47.6589ZM65.8749 52.7044L73.8909 64.4164L75.5414 63.2868L67.5254 51.5748L65.8749 52.7044ZM74.7161 62.8516H63.9641V64.8516H74.7161V62.8516ZM64.7968 63.2978L58.0288 53.1218L56.3635 54.2294L63.1315 64.4054L64.7968 63.2978ZM57.1961 52.6756H57.1001V54.6756H57.1961V52.6756ZM57.1001 52.6756H53.1161V54.6756H57.1001V52.6756ZM52.1161 53.6756V63.8516H54.1161V53.6756H52.1161ZM53.1161 62.8516H43.8041V64.8516H53.1161V62.8516ZM44.8041 63.8516V30.2516H42.8041V63.8516H44.8041ZM102.144 53.4836L102.88 54.1606L102.887 54.1534L102.893 54.1461L102.144 53.4836ZM103.872 50.6036L102.938 50.2464V50.2464L103.872 50.6036ZM99.3604 38.7476L98.9241 39.6474L98.9353 39.6528L98.9466 39.6579L99.3604 38.7476ZM92.3524 38.6996L91.9385 37.7891L91.9279 37.7941L92.3524 38.6996ZM89.6644 40.6676L88.9296 39.9893L88.9284 39.9905L89.6644 40.6676ZM87.9364 43.4996L87.0023 43.1424L86.9977 43.1545L86.9934 43.1667L87.9364 43.4996ZM87.9844 50.5076L87.0503 50.8647L87.9844 50.5076ZM89.7124 53.3876L88.9634 54.0501L88.9704 54.0581L88.9776 54.0658L89.7124 53.3876ZM92.4484 55.4036L92.0121 56.3034L92.0233 56.3088L92.0346 56.3139L92.4484 55.4036ZM88.6564 63.1796L88.2689 64.1015L88.2804 64.1062L88.6564 63.1796ZM82.9444 59.4356L83.6443 58.7213L82.9444 59.4356ZM79.1524 53.9156L78.2317 54.3061L78.2369 54.3178L79.1524 53.9156ZM79.1524 40.2836L78.2346 39.8863L78.2318 39.893L79.1524 40.2836ZM82.9924 34.7156L83.6852 35.4367L83.6924 35.4296L82.9924 34.7156ZM88.7524 30.9716L89.1284 31.8982L89.1398 31.8934L88.7524 30.9716ZM103.152 30.9716L102.765 31.8935L102.776 31.8982L103.152 30.9716ZM108.864 34.6676L109.564 33.9533L108.864 34.6676ZM112.608 40.1876L111.688 40.5781L111.693 40.5898L112.608 40.1876ZM112.608 53.8676L111.691 53.4703L111.688 53.477L112.608 53.8676ZM108.816 59.4356L109.509 60.1567L109.516 60.1496L108.816 59.4356ZM103.056 63.1796L103.432 64.1062L103.444 64.1014L103.056 63.1796ZM95.9524 57.1236C97.3602 57.1236 98.6713 56.8589 99.8702 56.3139L99.0426 54.4932C98.1294 54.9083 97.1045 55.1236 95.9524 55.1236V57.1236ZM99.8702 56.3139C101.04 55.7823 102.048 55.0657 102.88 54.1606L101.408 52.8065C100.769 53.5015 99.9849 54.0648 99.0426 54.4932L99.8702 56.3139ZM102.893 54.1461C103.713 53.2199 104.35 52.1553 104.806 50.9607L102.938 50.2464C102.563 51.2278 102.048 52.0832 101.395 52.821L102.893 54.1461ZM104.806 50.9607C105.268 49.7537 105.496 48.4802 105.496 47.1476H103.496C103.496 48.2469 103.309 49.2774 102.938 50.2464L104.806 50.9607ZM105.496 47.1476V47.0516H103.496V47.1476H105.496ZM105.496 47.0516C105.496 45.7189 105.268 44.4454 104.806 43.2384L102.938 43.9527C103.309 44.9217 103.496 45.9522 103.496 47.0516H105.496ZM104.806 43.2384C104.346 42.0352 103.688 40.9654 102.831 40.0373L101.362 41.3938C102.041 42.1297 102.566 42.98 102.938 43.9527L104.806 43.2384ZM102.831 40.0373C101.97 39.1049 100.949 38.371 99.7742 37.8372L98.9466 39.6579C99.8842 40.0841 100.686 40.6623 101.362 41.3938L102.831 40.0373ZM99.7966 37.8477C98.5927 37.264 97.2736 36.9796 95.8564 36.9796V38.9796C96.9992 38.9796 98.0161 39.2071 98.9241 39.6474L99.7966 37.8477ZM95.8564 36.9796C94.4485 36.9796 93.1374 37.2443 91.9386 37.7892L92.7662 39.6099C93.6793 39.1949 94.7042 38.9796 95.8564 38.9796V36.9796ZM91.9279 37.7941C90.7866 38.3291 89.7852 39.0623 88.9296 39.9893L90.3992 41.3458C91.0795 40.6088 91.8701 40.03 92.7768 39.605L91.9279 37.7941ZM88.9284 39.9905C88.1008 40.8901 87.4603 41.9447 87.0023 43.1424L88.8704 43.8567C89.2445 42.8784 89.756 42.045 90.4003 41.3446L88.9284 39.9905ZM86.9934 43.1667C86.5697 44.3673 86.3604 45.6324 86.3604 46.9556H88.3604C88.3604 45.8468 88.5351 44.8078 88.8794 43.8324L86.9934 43.1667ZM86.3604 46.9556V47.0516H88.3604V46.9556H86.3604ZM86.3604 47.0516C86.3604 48.3842 86.5888 49.6577 87.0503 50.8647L88.9184 50.1504C88.5479 49.1814 88.3604 48.1509 88.3604 47.0516H86.3604ZM87.0503 50.8647C87.5071 52.0593 88.144 53.1239 88.9634 54.0501L90.4614 52.725C89.8087 51.9872 89.2937 51.1318 88.9184 50.1504L87.0503 50.8647ZM88.9776 54.0658C89.8335 54.993 90.8478 55.7389 92.0121 56.3034L92.8846 54.5037C91.937 54.0443 91.1273 53.4461 90.4472 52.7093L88.9776 54.0658ZM92.0346 56.3139C93.2334 56.8589 94.5445 57.1236 95.9524 57.1236V55.1236C94.8002 55.1236 93.7753 54.9083 92.8622 54.4932L92.0346 56.3139ZM95.8564 63.5236C93.3819 63.5236 91.1108 63.0964 89.0324 62.2529L88.2804 64.1062C90.6179 65.0547 93.1469 65.5236 95.8564 65.5236V63.5236ZM89.0438 62.2577C86.944 61.3752 85.1481 60.1951 83.6443 58.7213L82.2444 60.1498C83.9407 61.8121 85.9527 63.128 88.2689 64.1014L89.0438 62.2577ZM83.6443 58.7213C82.1381 57.2453 80.9461 55.5121 80.0679 53.5133L78.2369 54.3178C79.2146 56.5431 80.5506 58.4898 82.2444 60.1498L83.6443 58.7213ZM80.073 53.525C79.2318 51.5422 78.8084 49.4197 78.8084 47.1476H76.8084C76.8084 49.6754 77.281 52.0649 78.2318 54.3061L80.073 53.525ZM78.8084 47.1476V47.0516H76.8084V47.1476H78.8084ZM78.8084 47.0516C78.8084 44.7794 79.2318 42.6569 80.073 40.6741L78.2318 39.893C77.281 42.1342 76.8084 44.5237 76.8084 47.0516H78.8084ZM80.0701 40.6808C80.9471 38.6546 82.152 36.9097 83.6852 35.4367L82.2995 33.9945C80.5687 35.6574 79.2136 37.6245 78.2347 39.8863L80.0701 40.6808ZM83.6924 35.4296C85.2274 33.9248 87.036 32.7473 89.1284 31.8982L88.3764 30.0449C86.0528 30.9879 84.0214 32.3063 82.2923 34.0015L83.6924 35.4296ZM89.1398 31.8934C91.2154 31.0211 93.4824 30.5796 95.9524 30.5796V28.5796C93.2384 28.5796 90.7054 29.066 88.3649 30.0497L89.1398 31.8934ZM95.9524 30.5796C98.4224 30.5796 100.689 31.0211 102.765 31.8934L103.54 30.0497C101.199 29.066 98.6664 28.5796 95.9524 28.5796V30.5796ZM102.776 31.8982C104.871 32.7483 106.663 33.9107 108.164 35.3818L109.564 33.9533C107.865 32.2884 105.849 30.9868 103.528 30.0449L102.776 31.8982ZM108.164 35.3818C109.668 36.8552 110.842 38.5845 111.688 40.5781L113.529 39.797C112.583 37.5666 111.261 35.6159 109.564 33.9533L108.164 35.3818ZM111.693 40.5898C112.563 42.5699 113 44.6883 113 46.9556H115C115 44.4228 114.51 42.0292 113.524 39.7853L111.693 40.5898ZM113 46.9556V47.0516H115V46.9556H113ZM113 47.0516C113 49.3187 112.563 51.4552 111.691 53.4703L113.526 54.2648C114.51 51.9919 115 49.5844 115 47.0516H113ZM111.688 53.477C110.843 55.4682 109.654 57.2141 108.116 58.7215L109.516 60.1496C111.243 58.457 112.582 56.491 113.529 54.2581L111.688 53.477ZM108.124 58.7145C106.585 60.1925 104.77 61.3745 102.669 62.2577L103.444 64.1014C105.758 63.1287 107.784 61.8147 109.509 60.1567L108.124 58.7145ZM102.68 62.2529C100.602 63.0964 98.3309 63.5236 95.8564 63.5236V65.5236C98.5659 65.5236 101.095 65.0547 103.432 64.1062L102.68 62.2529ZM139.283 50.6036V51.6036H140.749L140.214 50.2386L139.283 50.6036ZM135.539 41.0516L136.47 40.6866L135.545 38.3264L134.61 40.6826L135.539 41.0516ZM131.747 50.6036L130.818 50.2346L130.274 51.6036H131.747V50.6036ZM131.123 30.0116V29.0116H130.46L130.202 29.6222L131.123 30.0116ZM140.099 30.0116L141.02 29.6222L140.762 29.0116H140.099V30.0116ZM154.403 63.8516V64.8516H155.912L155.324 63.4622L154.403 63.8516ZM144.419 63.8516L143.493 64.2293L143.747 64.8516H144.419V63.8516ZM141.971 57.8516L142.897 57.4738L142.643 56.8516H141.971V57.8516ZM129.011 57.8516V56.8516H128.334L128.083 57.4802L129.011 57.8516ZM126.611 63.8516V64.8516H127.288L127.54 64.223L126.611 63.8516ZM116.819 63.8516L115.898 63.4622L115.311 64.8516H116.819V63.8516ZM140.214 50.2386L136.47 40.6866L134.608 41.4165L138.352 50.9685L140.214 50.2386ZM134.61 40.6826L130.818 50.2346L132.677 50.9725L136.469 41.4205L134.61 40.6826ZM131.747 51.6036H139.283V49.6036H131.747V51.6036ZM131.123 31.0116H140.099V29.0116H131.123V31.0116ZM139.178 30.4009L153.482 64.2409L155.324 63.4622L141.02 29.6222L139.178 30.4009ZM154.403 62.8516H144.419V64.8516H154.403V62.8516ZM145.345 63.4738L142.897 57.4738L141.045 58.2293L143.493 64.2293L145.345 63.4738ZM141.971 56.8516H129.011V58.8516H141.971V56.8516ZM128.083 57.4802L125.683 63.4802L127.54 64.223L129.94 58.223L128.083 57.4802ZM126.611 62.8516H116.819V64.8516H126.611V62.8516ZM117.74 64.2409L132.044 30.4009L130.202 29.6222L115.898 63.4622L117.74 64.2409ZM178.144 53.3876L178.799 54.1428L178.144 53.3876ZM178.144 40.7636L177.48 41.5118L177.488 41.5188L178.144 40.7636ZM167.632 38.5076V37.5076H166.632V38.5076H167.632ZM167.632 55.5956H166.632V56.5956H167.632V55.5956ZM158.32 30.2516V29.2516H157.32V30.2516H158.32ZM179.296 31.4996L178.96 32.4416L178.968 32.4443L178.976 32.447L179.296 31.4996ZM185.248 34.9076L184.571 35.6435L184.578 35.6501L185.248 34.9076ZM188.944 40.1876L188.017 40.5639L188.021 40.5727L188.025 40.5815L188.944 40.1876ZM188.944 53.7236L189.865 54.1123L189.867 54.1072L188.944 53.7236ZM179.152 62.6036L179.483 63.5471L179.49 63.5444L179.152 62.6036ZM158.32 63.8516H157.32V64.8516H158.32V63.8516ZM171.424 56.5956C174.389 56.5956 176.881 55.8079 178.799 54.1428L177.488 52.6323C176.015 53.9112 174.027 54.5956 171.424 54.5956V56.5956ZM178.799 54.1428C180.76 52.441 181.688 50.0425 181.688 47.0996H179.688C179.688 49.5966 178.92 51.3901 177.488 52.6323L178.799 54.1428ZM181.688 47.0996V47.0036H179.688V47.0996H181.688ZM181.688 47.0036C181.688 44.0884 180.757 41.7078 178.799 40.0083L177.488 41.5188C178.922 42.7634 179.688 44.5428 179.688 47.0036H181.688ZM178.807 40.0154C176.889 38.3143 174.394 37.5076 171.424 37.5076V39.5076C174.021 39.5076 176.007 40.2048 177.48 41.5117L178.807 40.0154ZM171.424 37.5076H167.632V39.5076H171.424V37.5076ZM166.632 38.5076V55.5956H168.632V38.5076H166.632ZM167.632 56.5956H171.424V54.5956H167.632V56.5956ZM158.32 31.2516H171.28V29.2516H158.32V31.2516ZM171.28 31.2516C174.197 31.2516 176.752 31.6551 178.96 32.4416L179.631 30.5575C177.167 29.68 174.378 29.2516 171.28 29.2516V31.2516ZM178.976 32.447C181.231 33.2089 183.088 34.2793 184.571 35.6435L185.925 34.1716C184.208 32.5918 182.097 31.3903 179.616 30.5522L178.976 32.447ZM184.578 35.6501C186.097 37.0204 187.242 38.655 188.017 40.5639L189.87 39.8112C188.982 37.6242 187.662 35.7387 185.918 34.165L184.578 35.6501ZM188.025 40.5815C188.83 42.4601 189.24 44.5482 189.24 46.8596H191.24C191.24 44.3069 190.786 41.947 189.863 39.7936L188.025 40.5815ZM189.24 46.8596V46.9556H191.24V46.8596H189.24ZM189.24 46.9556C189.24 49.2665 188.83 51.391 188.02 53.34L189.867 54.1072C190.786 51.8962 191.24 49.5086 191.24 46.9556H189.24ZM188.022 53.3349C187.214 55.2514 186.049 56.9092 184.522 58.3162L185.877 59.7869C187.615 58.1859 188.946 56.2917 189.865 54.1123L188.022 53.3349ZM184.522 58.3162C183.002 59.7173 181.106 60.8372 178.813 61.6627L179.49 63.5444C181.997 62.6419 184.134 61.3939 185.877 59.7869L184.522 58.3162ZM178.82 61.6601C176.578 62.4481 174.005 62.8516 171.088 62.8516V64.8516C174.187 64.8516 176.99 64.423 179.483 63.547L178.82 61.6601ZM171.088 62.8516H158.32V64.8516H171.088V62.8516ZM159.32 63.8516V30.2516H157.32V63.8516H159.32ZM195.679 30.2516V29.2516H194.679V30.2516H195.679ZM205.519 30.2516L206.37 29.7269L206.078 29.2516H205.519V30.2516ZM213.535 43.2596L212.684 43.7842L213.535 45.1657L214.386 43.7842L213.535 43.2596ZM221.551 30.2516V29.2516H220.993L220.7 29.7269L221.551 30.2516ZM231.391 30.2516H232.391V29.2516H231.391V30.2516ZM231.391 63.8516V64.8516H232.391V63.8516H231.391ZM222.127 63.8516H221.127V64.8516H222.127V63.8516ZM222.127 44.5556H223.127V41.1964L221.29 44.0086L222.127 44.5556ZM213.535 57.7076V58.7076H214.076L214.372 58.2545L213.535 57.7076ZM213.343 57.7076L212.506 58.2551L212.802 58.7076H213.343V57.7076ZM204.799 44.6516L205.636 44.104L203.799 41.2973V44.6516H204.799ZM204.799 63.8516V64.8516H205.799V63.8516H204.799ZM195.679 63.8516H194.679V64.8516H195.679V63.8516ZM195.679 31.2516H205.519V29.2516H195.679V31.2516ZM204.668 30.7762L212.684 43.7842L214.386 42.7349L206.37 29.7269L204.668 30.7762ZM214.386 43.7842L222.402 30.7762L220.7 29.7269L212.684 42.7349L214.386 43.7842ZM221.551 31.2516H231.391V29.2516H221.551V31.2516ZM230.391 30.2516V63.8516H232.391V30.2516H230.391ZM231.391 62.8516H222.127V64.8516H231.391V62.8516ZM223.127 63.8516V44.5556H221.127V63.8516H223.127ZM221.29 44.0086L212.698 57.1606L214.372 58.2545L222.964 45.1025L221.29 44.0086ZM213.535 56.7076H213.343V58.7076H213.535V56.7076ZM214.18 57.16L205.636 44.104L203.962 45.1991L212.506 58.2551L214.18 57.16ZM203.799 44.6516V63.8516H205.799V44.6516H203.799ZM204.799 62.8516H195.679V64.8516H204.799V62.8516ZM196.679 63.8516V30.2516H194.679V63.8516H196.679ZM257.783 50.6036V51.6036H259.249L258.714 50.2386L257.783 50.6036ZM254.039 41.0516L254.97 40.6866L254.045 38.3264L253.11 40.6826L254.039 41.0516ZM250.247 50.6036L249.318 50.2346L248.774 51.6036H250.247V50.6036ZM249.623 30.0116V29.0116H248.96L248.702 29.6222L249.623 30.0116ZM258.599 30.0116L259.52 29.6222L259.262 29.0116H258.599V30.0116ZM272.903 63.8516V64.8516H274.412L273.824 63.4622L272.903 63.8516ZM262.919 63.8516L261.993 64.2293L262.247 64.8516H262.919V63.8516ZM260.471 57.8516L261.397 57.4738L261.143 56.8516H260.471V57.8516ZM247.511 57.8516V56.8516H246.834L246.583 57.4802L247.511 57.8516ZM245.111 63.8516V64.8516H245.788L246.04 64.223L245.111 63.8516ZM235.319 63.8516L234.398 63.4622L233.811 64.8516H235.319V63.8516ZM258.714 50.2386L254.97 40.6866L253.108 41.4165L256.852 50.9685L258.714 50.2386ZM253.11 40.6826L249.318 50.2346L251.177 50.9725L254.969 41.4205L253.11 40.6826ZM250.247 51.6036H257.783V49.6036H250.247V51.6036ZM249.623 31.0116H258.599V29.0116H249.623V31.0116ZM257.678 30.4009L271.982 64.2409L273.824 63.4622L259.52 29.6222L257.678 30.4009ZM272.903 62.8516H262.919V64.8516H272.903V62.8516ZM263.845 63.4738L261.397 57.4738L259.545 58.2293L261.993 64.2293L263.845 63.4738ZM260.471 56.8516H247.511V58.8516H260.471V56.8516ZM246.583 57.4802L244.183 63.4802L246.04 64.223L248.44 58.223L246.583 57.4802ZM245.111 62.8516H235.319V64.8516H245.111V62.8516ZM236.24 64.2409L250.544 30.4009L248.702 29.6222L234.398 63.4622L236.24 64.2409ZM294.436 45.8036L295.073 46.574L295.076 46.5718L294.436 45.8036ZM294.436 39.2276L293.798 39.998L293.813 40.0098L293.827 40.0212L294.436 39.2276ZM286.132 38.0756V37.0756H285.132V38.0756H286.132ZM286.132 46.9556H285.132V47.9556H286.132V46.9556ZM276.82 30.2516V29.2516H275.82V30.2516H276.82ZM296.98 31.0676L296.679 32.0214L296.688 32.024L296.696 32.0264L296.98 31.0676ZM301.396 33.3716L300.752 34.1365L300.758 34.1415L300.764 34.1464L301.396 33.3716ZM304.18 37.0676L303.263 37.4663L303.266 37.4746L303.27 37.4829L304.18 37.0676ZM304.084 47.3876L303.186 46.948L303.182 46.9558L303.178 46.9636L304.084 47.3876ZM301.108 51.1796L301.732 51.9604L301.108 51.1796ZM296.5 53.4836L296.225 52.522L296.22 52.5234L296.5 53.4836ZM286.132 54.2516V53.2516H285.132V54.2516H286.132ZM286.132 63.8516V64.8516H287.132V63.8516H286.132ZM276.82 63.8516H275.82V64.8516H276.82V63.8516ZM290.548 47.9556C292.356 47.9556 293.908 47.5382 295.073 46.574L293.798 45.0332C293.107 45.6049 292.067 45.9556 290.548 45.9556V47.9556ZM295.076 46.5718C296.283 45.566 296.876 44.2028 296.876 42.5876H294.876C294.876 43.6603 294.509 44.4411 293.796 45.0353L295.076 46.5718ZM296.876 42.5876V42.4916H294.876V42.5876H296.876ZM296.876 42.4916C296.876 40.807 296.299 39.3963 295.044 38.434L293.827 40.0212C294.492 40.5308 294.876 41.2961 294.876 42.4916H296.876ZM295.073 38.4572C293.905 37.4904 292.335 37.0756 290.5 37.0756V39.0756C292.057 39.0756 293.11 39.4287 293.798 39.998L295.073 38.4572ZM290.5 37.0756H286.132V39.0756H290.5V37.0756ZM285.132 38.0756V46.9556H287.132V38.0756H285.132ZM286.132 47.9556H290.548V45.9556H286.132V47.9556ZM276.82 31.2516H291.22V29.2516H276.82V31.2516ZM291.22 31.2516C293.246 31.2516 295.063 31.5126 296.679 32.0214L297.28 30.1137C295.44 29.5345 293.417 29.2516 291.22 29.2516V31.2516ZM296.696 32.0264C298.309 32.5044 299.654 33.2123 300.752 34.1365L302.04 32.6066C300.705 31.4828 299.106 30.6547 297.264 30.1088L296.696 32.0264ZM300.764 34.1464C301.853 35.0352 302.685 36.1371 303.263 37.4663L305.097 36.6688C304.395 35.054 303.37 33.6919 302.028 32.5967L300.764 34.1464ZM303.27 37.4829C303.874 38.8066 304.188 40.3259 304.188 42.0596H306.188C306.188 40.0813 305.829 38.2725 305.089 36.6523L303.27 37.4829ZM304.188 42.0596V42.1556H306.188V42.0596H304.188ZM304.188 42.1556C304.188 44.0152 303.843 45.6039 303.186 46.948L304.982 47.8271C305.796 46.1632 306.188 44.264 306.188 42.1556H304.188ZM303.178 46.9636C302.538 48.3305 301.642 49.4718 300.483 50.3987L301.732 51.9604C303.134 50.8393 304.221 49.4526 304.989 47.8115L303.178 46.9636ZM300.483 50.3987C299.32 51.3293 297.907 52.0415 296.225 52.522L296.774 54.4451C298.677 53.9016 300.336 53.0778 301.732 51.9604L300.483 50.3987ZM296.22 52.5234C294.562 53.0057 292.738 53.2516 290.74 53.2516V55.2516C292.902 55.2516 294.917 54.9854 296.779 54.4438L296.22 52.5234ZM290.74 53.2516H286.132V55.2516H290.74V53.2516ZM285.132 54.2516V63.8516H287.132V54.2516H285.132ZM286.132 62.8516H276.82V64.8516H286.132V62.8516ZM277.82 63.8516V30.2516H275.82V63.8516H277.82Z" fill="#FFF103"/>
<path d="M18.7601 32.3796C20.3601 32.3796 21.5921 32.0276 22.4561 31.3236C23.3201 30.5876 23.7521 29.6116 23.7521 28.3956V28.2996C23.7521 26.9556 23.3041 25.9636 22.4081 25.3236C21.5121 24.6516 20.2801 24.3156 18.7121 24.3156H12.6161V32.3796H18.7601ZM3.30413 16.2516H19.1921C21.7841 16.2516 23.9761 16.5716 25.7681 17.2116C27.5601 17.8516 29.0161 18.7476 30.1361 19.8996C32.1201 21.8196 33.1121 24.4276 33.1121 27.7236V27.8196C33.1121 30.4116 32.4881 32.5556 31.2401 34.2516C29.9921 35.9476 28.3121 37.2436 26.2001 38.1396L34.2161 49.8516H23.4641L16.6961 39.6756H16.6001H12.6161V49.8516H3.30413V16.2516ZM55.4524 42.1236C56.7324 42.1236 57.9004 41.8836 58.9564 41.4036C60.0124 40.9236 60.9084 40.2836 61.6444 39.4836C62.3804 38.6516 62.9564 37.6916 63.3724 36.6036C63.7884 35.5156 63.9964 34.3636 63.9964 33.1476V33.0516C63.9964 31.8356 63.7884 30.6836 63.3724 29.5956C62.9564 28.5076 62.3644 27.5476 61.5964 26.7156C60.8284 25.8836 59.9164 25.2276 58.8604 24.7476C57.8044 24.2356 56.6364 23.9796 55.3564 23.9796C54.0764 23.9796 52.9084 24.2196 51.8524 24.6996C50.8284 25.1796 49.9324 25.8356 49.1644 26.6676C48.4284 27.4676 47.8524 28.4116 47.4364 29.4996C47.0524 30.5876 46.8604 31.7396 46.8604 32.9556V33.0516C46.8604 34.2676 47.0684 35.4196 47.4844 36.5076C47.9004 37.5956 48.4764 38.5556 49.2124 39.3876C49.9804 40.2196 50.8924 40.8916 51.9484 41.4036C53.0044 41.8836 54.1724 42.1236 55.4524 42.1236ZM55.3564 50.5236C52.7644 50.5236 50.3644 50.0756 48.1564 49.1796C45.9484 48.2516 44.0444 47.0036 42.4444 45.4356C40.8444 43.8676 39.5804 42.0276 38.6524 39.9156C37.7564 37.8036 37.3084 35.5476 37.3084 33.1476V33.0516C37.3084 30.6516 37.7564 28.3956 38.6524 26.2836C39.5804 24.1396 40.8604 22.2836 42.4924 20.7156C44.1244 19.1156 46.0444 17.8676 48.2524 16.9716C50.4604 16.0436 52.8604 15.5796 55.4524 15.5796C58.0444 15.5796 60.4444 16.0436 62.6524 16.9716C64.8604 17.8676 66.7644 19.0996 68.3644 20.6676C69.9644 22.2356 71.2124 24.0756 72.1084 26.1876C73.0364 28.2996 73.5004 30.5556 73.5004 32.9556V33.0516C73.5004 35.4516 73.0364 37.7236 72.1084 39.8676C71.2124 41.9796 69.9484 43.8356 68.3164 45.4356C66.6844 47.0036 64.7644 48.2516 62.5564 49.1796C60.3484 50.0756 57.9484 50.5236 55.3564 50.5236ZM98.7833 36.6036L95.0393 27.0516L91.2473 36.6036H98.7833ZM90.6233 16.0116H99.5993L113.903 49.8516H103.919L101.471 43.8516H88.5113L86.1113 49.8516H76.3193L90.6233 16.0116ZM130.924 41.5956C133.708 41.5956 135.948 40.8596 137.644 39.3876C139.34 37.9156 140.188 35.8196 140.188 33.0996V33.0036C140.188 30.3156 139.34 28.2356 137.644 26.7636C135.948 25.2596 133.708 24.5076 130.924 24.5076H127.132V41.5956H130.924ZM117.82 16.2516H130.78C133.788 16.2516 136.46 16.6676 138.796 17.4996C141.164 18.2996 143.148 19.4356 144.748 20.9076C146.38 22.3796 147.612 24.1396 148.444 26.1876C149.308 28.2036 149.74 30.4276 149.74 32.8596V32.9556C149.74 35.3876 149.308 37.6436 148.444 39.7236C147.58 41.7716 146.332 43.5476 144.7 45.0516C143.068 46.5556 141.052 47.7396 138.652 48.6036C136.284 49.4356 133.596 49.8516 130.588 49.8516H117.82V16.2516ZM155.179 16.2516H165.019L173.035 29.2596L181.051 16.2516H190.891V49.8516H181.627V30.5556L173.035 43.7076H172.843L164.299 30.6516V49.8516H155.179V16.2516ZM217.283 36.6036L213.539 27.0516L209.747 36.6036H217.283ZM209.123 16.0116H218.099L232.403 49.8516H222.419L219.971 43.8516H207.011L204.611 49.8516H194.819L209.123 16.0116ZM250.048 32.9556C251.712 32.9556 253.008 32.5716 253.936 31.8036C254.896 31.0036 255.376 29.9316 255.376 28.5876V28.4916C255.376 27.0516 254.896 25.9636 253.936 25.2276C253.008 24.4596 251.696 24.0756 250 24.0756H245.632V32.9556H250.048ZM236.32 16.2516H250.72C252.832 16.2516 254.752 16.5236 256.48 17.0676C258.208 17.5796 259.68 18.3476 260.896 19.3716C262.112 20.3636 263.04 21.5956 263.68 23.0676C264.352 24.5396 264.688 26.2036 264.688 28.0596V28.1556C264.688 30.1396 264.32 31.8836 263.584 33.3876C262.88 34.8916 261.888 36.1556 260.608 37.1796C259.328 38.2036 257.792 38.9716 256 39.4836C254.24 39.9956 252.32 40.2516 250.24 40.2516H245.632V49.8516H236.32V16.2516Z" fill="#FFF103"/>
</svg>
