<svg width="102" height="103" viewBox="0 0 102 103" fill="none" xmlns="http://www.w3.org/2000/svg">
<circle cx="51" cy="51.769" r="51" fill="#34093B"/>
<g clip-path="url(#clip0)">
<path d="M79.0967 68.869H75.3511C75.8583 68.869 76.2972 69.0571 76.6679 69.4331C77.0386 69.8091 77.2239 70.2545 77.2239 70.769V78.369C77.2239 78.8836 77.0386 79.3289 76.6679 79.705C76.2972 80.081 75.8583 80.269 75.3511 80.269H26.6582C26.1509 80.269 25.712 80.081 25.3413 79.705C24.9707 79.3289 24.7853 78.8836 24.7853 78.369V70.769C24.7853 70.2545 24.9707 69.8091 25.3413 69.4331C25.712 69.0571 26.1509 68.869 26.6582 68.869H30.4038C29.8965 68.869 29.4576 68.681 29.0869 68.305C28.7163 67.9289 28.531 67.4836 28.531 66.969V59.369C28.531 58.8545 28.7163 58.4091 29.0869 58.0331C29.4576 57.6571 29.8965 57.469 30.4038 57.469H22.9125C22.4053 57.469 21.9664 57.281 21.5957 56.905C21.2251 56.5289 21.0397 56.0836 21.0397 55.569V47.969C21.0397 47.4545 21.2251 47.0091 21.5957 46.6331C21.9664 46.2571 22.4053 46.069 22.9125 46.069H26.6582C26.1509 46.069 25.712 45.881 25.3413 45.505C24.9707 45.1289 24.7853 44.6836 24.7853 44.169V36.569C24.7853 36.0545 24.9707 35.6091 25.3413 35.2331C25.712 34.8571 26.1509 34.669 26.6582 34.669H22.9125C22.4053 34.669 21.9664 34.481 21.5957 34.105C21.2251 33.7289 21.0397 33.2836 21.0397 32.769V25.169C21.0397 24.6545 21.2251 24.2091 21.5957 23.8331C21.9664 23.4571 22.4053 23.269 22.9125 23.269H71.6055C72.1127 23.269 72.5516 23.4571 72.9223 23.8331C73.293 24.2091 73.4783 24.6545 73.4783 25.169V32.769C73.4783 33.2836 73.293 33.7289 72.9223 34.105C72.5516 34.481 72.1127 34.669 71.6055 34.669H75.3511C75.8583 34.669 76.2972 34.8571 76.6679 35.2331C77.0386 35.6091 77.2239 36.0545 77.2239 36.569V44.169C77.2239 44.6836 77.0386 45.1289 76.6679 45.505C76.2972 45.881 75.8583 46.069 75.3511 46.069H71.6055C72.1127 46.069 72.5516 46.2571 72.9223 46.6331C73.293 47.0091 73.4783 47.4545 73.4783 47.969V55.569C73.4783 56.0836 73.293 56.5289 72.9223 56.905C72.5516 57.281 72.1127 57.469 71.6055 57.469H79.0967C79.6039 57.469 80.0429 57.6571 80.4135 58.0331C80.7842 58.4091 80.9695 58.8545 80.9695 59.369V66.969C80.9695 67.4836 80.7842 67.9289 80.4135 68.305C80.0429 68.681 79.6039 68.869 79.0967 68.869ZM51.0046 76.469H54.7502V72.669H51.0046V76.469ZM39.7678 61.269V65.069H51.0046V61.269H39.7678ZM51.0046 53.669V49.869H47.259V53.669H51.0046ZM36.0222 42.269H47.259V38.469H36.0222V42.269ZM32.2766 49.869V53.669H43.5134V49.869H32.2766ZM36.0222 76.469H47.259V72.669H36.0222V76.469ZM36.0222 61.269H32.2766V65.069H36.0222V61.269ZM28.531 72.669V76.469H32.2766V72.669H28.531ZM24.7853 49.869V53.669H28.531V49.869H24.7853ZM28.531 27.069H24.7853V30.869H28.531V27.069ZM28.531 42.269H32.2766V38.469H28.531V42.269ZM43.5134 27.069H32.2766V30.869H43.5134V27.069ZM51.0046 27.069H47.259V30.869H51.0046V27.069ZM54.7502 38.469H51.0046V42.269H54.7502V38.469ZM58.4958 61.269H54.7502V65.069H58.4958V61.269Z" fill="#FFF103"/>
</g>
<defs>
<clipPath id="clip0">
<rect width="60" height="57" fill="white" transform="translate(21 23.269)"/>
</clipPath>
</defs>
</svg>
